<svg xmlns="http://www.w3.org/2000/svg" viewBox="0 0 100 100" fill="none" stroke="#B8963E" stroke-width="5" stroke-linecap="round" stroke-linejoin="round">
    <!-- Center Leaf -->
    <path d="M50 15 C 38 35, 42 50, 50 60 C 58 50, 62 35, 50 15 Z" />
    <path d="M50 15 L 50 60" />
    
    <!-- Left Leaf -->
    <path d="M44 48 C 30 42, 20 30, 25 20 C 32 25, 40 38, 44 48 Z" />
    <path d="M25 20 L 44 48" />

    <!-- Right Leaf -->
    <path d="M56 48 C 70 42, 80 30, 75 20 C 68 25, 60 38, 56 48 Z" />
    <path d="M75 20 L 56 48" />
    
    <!-- Waves -->
    <path d="M30 70 Q 40 60, 50 70 T 70 70" />
    <path d="M35 80 Q 42.5 73, 50 80 T 65 80" />
    <path d="M42 90 Q 46 85, 50 90 T 58 90" />
</svg>